<svg width="116" height="116" viewBox="0 0 116 116" fill="none" xmlns="http://www.w3.org/2000/svg">
<g filter="url(#filter0_d_30_641)">
<path d="M16.0264 0C9.38767 0 4 5.49 4 12.249C4 19.017 9.38767 24.5025 16.0264 24.5025C22.6697 24.5025 28.0573 19.0125 28.0573 12.249C28.0573 5.4855 22.6697 0 16.0264 0ZM58 0C51.3567 0 45.9736 5.49 45.9736 12.249C45.9736 19.017 51.3613 24.5025 58 24.5025C64.6433 24.5025 70.0264 19.0125 70.0264 12.249C70.0264 5.4855 64.6387 0 58 0ZM99.9736 0C93.3304 0 87.9427 5.49 87.9427 12.249C87.9427 19.017 93.3304 24.5025 99.9736 24.5025C106.617 24.5025 112 19.0125 112 12.249C112 5.4855 106.612 0 99.9736 0ZM16.0264 41.7465C9.38767 41.7465 4 47.2365 4 54C4 60.7635 9.38767 66.249 16.0264 66.249C22.6697 66.249 28.0573 60.7635 28.0573 54C28.0573 47.232 22.6697 41.7465 16.0264 41.7465ZM58 41.7465C51.3567 41.7465 45.9736 47.2365 45.9736 54C45.9736 60.7635 51.3613 66.249 58 66.249C64.6433 66.249 70.0264 60.7635 70.0264 54C70.0264 47.232 64.6387 41.7465 58 41.7465ZM99.9736 41.7465C93.3304 41.7465 87.9427 47.2365 87.9427 54C87.9427 60.7635 93.3304 66.249 99.9736 66.249C106.617 66.249 112 60.7635 112 54C112 47.232 106.612 41.7465 99.9736 41.7465ZM16.0264 83.4975C9.38767 83.4975 4 88.9875 4 95.7465C4 102.515 9.38767 108 16.0264 108C22.6697 108 28.0573 102.51 28.0573 95.7465C28.0573 88.983 22.6697 83.4975 16.0264 83.4975ZM58 83.4975C51.3567 83.4975 45.9736 88.9875 45.9736 95.7465C45.9736 102.515 51.3613 108 58 108C64.6433 108 70.0264 102.51 70.0264 95.7465C70.0264 88.983 64.6387 83.4975 58 83.4975ZM99.9736 83.4975C93.3304 83.4975 87.9427 88.9875 87.9427 95.7465C87.9427 102.515 93.3304 108 99.9736 108C106.617 108 112 102.51 112 95.7465C112 88.983 106.612 83.4975 99.9736 83.4975Z" fill="white"/>
</g>
<defs>
<filter id="filter0_d_30_641" x="0" y="0" width="116" height="116" filterUnits="userSpaceOnUse" color-interpolation-filters="sRGB">
<feFlood flood-opacity="0" result="BackgroundImageFix"/>
<feColorMatrix in="SourceAlpha" type="matrix" values="0 0 0 0 0 0 0 0 0 0 0 0 0 0 0 0 0 0 127 0" result="hardAlpha"/>
<feOffset dy="4"/>
<feGaussianBlur stdDeviation="2"/>
<feComposite in2="hardAlpha" operator="out"/>
<feColorMatrix type="matrix" values="0 0 0 0 0 0 0 0 0 0 0 0 0 0 0 0 0 0 0.25 0"/>
<feBlend mode="normal" in2="BackgroundImageFix" result="effect1_dropShadow_30_641"/>
<feBlend mode="normal" in="SourceGraphic" in2="effect1_dropShadow_30_641" result="shape"/>
</filter>
</defs>
</svg>
